<svg xmlns="http://www.w3.org/2000/svg" xmlns:xlink="http://www.w3.org/1999/xlink" viewBox="0,0,256,256" width="50px" height="50px" fill-rule="nonzero"><g fill="#9d6e15" fill-rule="nonzero" stroke="none" stroke-width="1" stroke-linecap="butt" stroke-linejoin="miter" stroke-miterlimit="10" stroke-dasharray="" stroke-dashoffset="0" font-family="none" font-weight="none" font-size="none" text-anchor="none" style="mix-blend-mode: normal"><g transform="scale(2.56,2.56)"><path d="M42.26367,10.28516c-0.42654,-0.00616 -0.89408,0.00841 -1.38477,0.06055c-1.96274,0.20853 -4.5781,1.08906 -6.18164,3.60547c-0.00065,0 -0.0013,0 -0.00195,0c-1.64548,2.58318 -10.7793,16.91992 -10.7793,16.91992c-0.59242,0.93105 -0.31887,2.166 0.61133,2.75977l13.16016,8.38672c0.44754,0.28495 0.98995,0.38043 1.50789,0.26541c0.51794,-0.11502 0.96896,-0.4311 1.25383,-0.87869l9.4707,-14.86523c1.2026,2.4726 1.87728,3.97986 2.27148,4.85547l-4.25781,3.45508c-0.61179,0.4961 -0.87547,1.30505 -0.67355,2.06638c0.20193,0.76133 0.83186,1.33327 1.60909,1.46096l16.75391,2.74414c0.87942,0.14448 1.74834,-0.31029 2.13086,-1.11523l7.70117,-16.23828c0.37754,-0.79645 0.18924,-1.74616 -0.46361,-2.33831c-0.65286,-0.59216 -1.61638,-0.68718 -2.37232,-0.23395l-2.55859,1.53516l-6.6582,-11.11133c-0.3578,-0.59763 -1.00074,-0.96608 -1.69727,-0.97266l-17.38086,-0.15039c-0.1273,-0.02841 -0.88105,-0.19392 -2.06055,-0.21094zM40.49023,14.46289c0.06869,0.00759 0.37852,0.05063 1.12109,0.39258c0.83252,0.38336 1.9841,1.10077 3.1582,2.49219c0.64261,0.76155 1.82161,2.78734 3.03906,5.06055l-9.6582,15.16016l-1.63281,-1.04102l3.31445,-4.97266c0.21326,-0.31011 0.23436,-0.7137 0.0546,-1.04436c-0.17976,-0.33066 -0.52994,-0.5324 -0.90616,-0.52205c-0.32962,0.00908 -0.63357,0.18006 -0.8125,0.45703l-3.33789,5.00781l-2.75781,-1.75781l2.52734,-1.89453c0.34831,-0.25354 0.49512,-0.70165 0.36434,-1.11214c-0.13077,-0.41049 -0.50973,-0.69111 -0.94051,-0.69645c-0.22506,-0.00307 -0.44458,0.06988 -0.62305,0.20703l-3.13086,2.34766l-1.90625,-1.21484c1.49087,-2.33979 8.22371,-12.90185 9.70703,-15.23047c0.61793,-0.9697 1.4798,-1.42136 2.41992,-1.63867zM47.57031,14.52539l12.97852,0.11133l7.10938,11.86523c0.34364,0.57132 0.94935,0.93386 1.61523,0.9668l-4.49023,9.46289l-10.87305,-1.78125l2.01563,-1.63672c0.70219,-0.56938 0.93518,-1.53897 0.56836,-2.36523c0,0 -1.41819,-3.18924 -3.18555,-6.79688c-1.76736,-3.60764 -3.71813,-7.49314 -5.48242,-9.58398c-0.08485,-0.10056 -0.17055,-0.14615 -0.25586,-0.24219zM54.63867,20.01758c-0.26037,0.0465 -0.50302,0.19178 -0.66602,0.42578c-0.326,0.467 -0.21019,1.1115 0.25781,1.4375c0.468,0.326 1.11345,0.21019 1.43945,-0.25781c0.326,-0.468 0.20923,-1.1125 -0.25977,-1.4375c-0.2335,-0.163 -0.51111,-0.21447 -0.77148,-0.16797zM62.63867,22.01758c-0.26037,0.0465 -0.50302,0.19178 -0.66602,0.42578c-0.326,0.467 -0.21019,1.1115 0.25781,1.4375c0.468,0.326 1.11345,0.21019 1.43945,-0.25781c0.326,-0.468 0.20923,-1.1125 -0.25977,-1.4375c-0.2335,-0.163 -0.51111,-0.21447 -0.77148,-0.16797zM58.63867,27.01758c-0.26037,0.0465 -0.50302,0.19178 -0.66602,0.42578c-0.326,0.467 -0.21019,1.1115 0.25781,1.4375c0.468,0.326 1.11345,0.21019 1.43945,-0.25781c0.326,-0.468 0.20923,-1.1125 -0.25977,-1.4375c-0.2335,-0.163 -0.51111,-0.21447 -0.77148,-0.16797zM77.25977,37.15039c-0.31428,0.01708 -0.62009,0.10809 -0.89258,0.26563l-13.51367,7.80273c-0.95568,0.55219 -1.28345,1.77412 -0.73242,2.73047l8.81445,15.26758c-2.7481,-0.07461 -4.396,-0.17192 -5.35547,-0.22656l-1.09961,-5.37695c-0.1954,-0.95343 -1.0487,-1.62783 -2.02148,-1.59766c-0.60811,0.01897 -1.17453,0.31368 -1.53906,0.80078l-10.16992,13.59375c-0.53311,0.71375 -0.52992,1.69403 0.00781,2.4043l10.8457,14.33008c0.53198,0.70336 1.46184,0.97532 2.28899,0.66947c0.82715,-0.30585 1.35639,-1.11734 1.3028,-1.9976l-0.17969,-2.97656l12.92969,-0.77734c0.69579,-0.04187 1.3196,-0.44294 1.64648,-1.05859l8.5293,-16.04102c0.25952,-0.36683 0.52217,-0.75701 0.77148,-1.19141c1.13008,-1.96904 2.15106,-4.97247 0.53516,-7.77148c-1.53654,-2.66186 -10.33008,-17.85352 -10.33008,-17.85352c-0.37657,-0.65122 -1.08669,-1.03609 -1.83789,-0.99609zM29.99219,40.56055c-0.06007,0.00186 -0.12003,0.00642 -0.17969,0.01367l-17.83203,2.22852c-0.78016,0.09797 -1.43055,0.64394 -1.6622,1.39533c-0.23165,0.75139 -0.00158,1.5688 0.58798,2.08905l3.50977,3.09961l-6.11914,9.95703c-0.36982,0.60155 -0.39506,1.35352 -0.06641,1.97852c3.42441,6.51621 6.81649,11.75936 10.1875,16.12305c0.04452,0.05723 0.09211,0.112 0.14258,0.16406c0.12338,0.20519 0.2244,0.40106 0.36328,0.60938c1.28518,1.92776 3.45069,4.23242 6.67969,4.23242h20.06055c1.10452,-0.00011 1.99989,-0.89548 2,-2v-15.60156c-0.00011,-1.10452 -0.89548,-1.99989 -2,-2h-17.62695c1.4396,-2.34389 2.34826,-3.72231 2.875,-4.52539l5.20313,1.73438c0.74675,0.24836 1.56973,0.03576 2.10276,-0.5432c0.53303,-0.57896 0.67704,-1.41667 0.36794,-2.1404l-6.6875,-15.60352c-0.32498,-0.75806 -1.08194,-1.23892 -1.90625,-1.21094zM76.63672,41.87891c1.40319,2.42426 7.94857,13.73119 9.32813,16.12109c0.39301,0.68076 0.38563,1.47053 0.12109,2.31641c-0.01535,0.0199 -0.03033,0.04008 -0.04492,0.06055c0,0 -0.18155,0.29979 -0.90625,0.86133c-0.7247,0.56154 -1.89181,1.25314 -3.66797,1.65234c-0.97191,0.21845 -3.31352,0.32717 -5.89258,0.35742l-0.04102,-0.06836l2.02148,-1.34766c0.37753,-0.2437 0.54617,-0.70926 0.4123,-1.13821c-0.13387,-0.42894 -0.5374,-0.71594 -0.98652,-0.70163c-0.19154,0.00611 -0.3773,0.06712 -0.53516,0.17578l-1.91406,1.27539l-1.00781,-1.74609l3.25781,-4.07227c0.25049,-0.30441 0.29879,-0.72757 0.12333,-1.08059c-0.17546,-0.35302 -0.54193,-0.57004 -0.93583,-0.55417c-0.29448,0.01149 -0.5689,0.15227 -0.75,0.38477l-2.76953,3.46289l-1.41797,-2.45508l4.67578,-4.67578c0.29576,-0.28749 0.38469,-0.72707 0.22393,-1.10691c-0.16075,-0.37985 -0.53821,-0.62204 -0.9505,-0.60988c-0.2598,0.00774 -0.50638,0.11632 -0.6875,0.30273l-4.29687,4.29688l-1.16211,-2.01367l2.875,-2.88477c0.29637,-0.28797 0.3851,-0.72857 0.22331,-1.10882c-0.16179,-0.38025 -0.54078,-0.62183 -0.95378,-0.60798c-0.26008,0.00826 -0.5067,0.11755 -0.6875,0.30469l-2.49219,2.50195l-1.21289,-2.09961zM28.81641,44.73047l4.33984,10.125l-2.46289,-0.82031c-0.85742,-0.2853 -1.79965,0.03971 -2.29883,0.79297c0,0 -1.92859,2.90879 -4.02148,6.33789c-2.09289,3.4291 -4.32177,7.16174 -5.13672,9.77344c-0.08091,0.25929 -0.06615,0.27616 -0.13672,0.50977c-2.23284,-3.19384 -4.48579,-6.7604 -6.77344,-11.02344l6.37695,-10.37891c0.50958,-0.8282 0.34969,-1.90289 -0.37891,-2.54687l-1.44727,-1.27734zM22.22266,47.97852c-0.26025,0.0465 -0.50302,0.19178 -0.66602,0.42578c-0.326,0.468 -0.21019,1.11345 0.25781,1.43945c0.468,0.326 1.11345,0.21019 1.43945,-0.25781c0.326,-0.468 0.20923,-1.1125 -0.25977,-1.4375c-0.234,-0.163 -0.51123,-0.21642 -0.77148,-0.16992zM20.15625,56.69531c-0.26025,0.0465 -0.50302,0.19178 -0.66602,0.42578c-0.326,0.467 -0.21019,1.1115 0.25781,1.4375c0.468,0.326 1.11345,0.21214 1.43945,-0.25586c0.326,-0.468 0.21019,-1.11345 -0.25781,-1.43945c-0.234,-0.163 -0.51319,-0.21447 -0.77344,-0.16797zM61.45508,62.7793l0.51953,2.54297c0.18108,0.88566 0.93368,1.53979 1.83594,1.5957c0,0 3.48381,0.21457 7.5,0.3125c4.01619,0.09793 8.36393,0.16244 11.0332,-0.4375c0.12881,-0.02895 0.209,-0.08377 0.33398,-0.11523l-6.0918,11.45898l-13.80664,0.82813c-0.66549,0.04097 -1.26681,0.41084 -1.60352,0.98633l-6.32031,-8.34961zM25.68945,66.84961h17.97461v11.60156h-3.57031l1.92578,-2.56836c0.23004,-0.29757 0.27366,-0.69905 0.11292,-1.03909c-0.16075,-0.34004 -0.49868,-0.56114 -0.87464,-0.57224c-0.33022,-0.00945 -0.6438,0.14478 -0.83789,0.41211l-2.82617,3.76758h-2.94922l1.22266,-1.62891c0.22907,-0.29785 0.27186,-0.69897 0.11078,-1.03844c-0.16108,-0.33947 -0.49886,-0.56001 -0.87445,-0.57094c-0.32918,-0.00925 -0.64181,0.14415 -0.83594,0.41016l-2.12109,2.82813h-2.88867l2.57617,-3.90039c0.21169,-0.31089 0.23104,-0.71426 0.0501,-1.044c-0.18094,-0.32973 -0.53158,-0.53007 -0.90752,-0.5185c-0.32966,0.01059 -0.6329,0.18303 -0.81055,0.46094l-3.30859,5.00195h-1.25391c-0.48114,0 -0.95355,-0.16333 -1.4082,-0.44141l3.63672,-5.45508c0.21326,-0.31011 0.23436,-0.7137 0.0546,-1.04436c-0.17976,-0.33066 -0.52994,-0.5324 -0.90616,-0.52205c-0.32962,0.00908 -0.63357,0.18006 -0.8125,0.45703l-3.44531,5.16992c-0.15892,-0.20086 -0.32263,-0.39313 -0.4707,-0.61523c-0.06574,-0.09862 -0.11245,-0.19255 -0.17383,-0.29102c0.11144,-0.56334 0.37361,-1.64584 0.97656,-3.57812c0.29667,-0.95073 1.37173,-3.03296 2.63477,-5.28125zM62.63867,69.94922c-0.26037,0.0465 -0.50302,0.19373 -0.66602,0.42773c-0.326,0.468 -0.21019,1.1115 0.25781,1.4375c0.468,0.326 1.11345,0.21019 1.43945,-0.25781c0.326,-0.468 0.20923,-1.1115 -0.25977,-1.4375c-0.2335,-0.163 -0.51111,-0.21642 -0.77148,-0.16992zM70.63867,71.94922c-0.26037,0.0465 -0.50302,0.19373 -0.66602,0.42773c-0.326,0.468 -0.21019,1.1115 0.25781,1.4375c0.468,0.326 1.11345,0.21019 1.43945,-0.25781c0.326,-0.468 0.20923,-1.1115 -0.25977,-1.4375c-0.2335,-0.163 -0.51111,-0.21642 -0.77148,-0.16992z"></path></g></g></svg>