<svg xmlns="http://www.w3.org/2000/svg"  viewBox="0 0 100 100" width="50px" height="50px"><path d="M 42.263672 10.285156 C 41.837135 10.279001 41.369591 10.293569 40.878906 10.345703 C 38.916167 10.554238 36.300804 11.434768 34.697266 13.951172 A 2.0002 2.0002 0 0 0 34.695312 13.951172 C 33.049836 16.534352 23.916016 30.871094 23.916016 30.871094 A 2.0002 2.0002 0 0 0 24.527344 33.630859 L 37.6875 42.017578 A 2.0002 2.0002 0 0 0 40.449219 41.404297 L 49.919922 26.539062 C 51.122519 29.011662 51.797206 30.518924 52.191406 31.394531 L 47.933594 34.849609 A 2.0002 2.0002 0 0 0 48.869141 38.376953 L 65.623047 41.121094 A 2.0002 2.0002 0 0 0 67.753906 40.005859 L 75.455078 23.767578 A 2.0002 2.0002 0 0 0 72.619141 21.195312 L 70.060547 22.730469 L 63.402344 11.619141 A 2.0002 2.0002 0 0 0 61.705078 10.646484 L 44.324219 10.496094 C 44.196922 10.467687 43.443167 10.302177 42.263672 10.285156 z M 40.490234 14.462891 C 40.558919 14.47048 40.868752 14.51352 41.611328 14.855469 C 42.443848 15.23883 43.595429 15.956238 44.769531 17.347656 C 45.412141 18.109206 46.591137 20.135 47.808594 22.408203 L 38.150391 37.568359 L 36.517578 36.527344 L 39.832031 31.554688 A 1.0001 1.0001 0 0 0 38.980469 29.988281 A 1.0001 1.0001 0 0 0 38.167969 30.445312 L 34.830078 35.453125 L 32.072266 33.695312 L 34.599609 31.800781 A 1.0001 1.0001 0 0 0 34.023438 29.992188 A 1.0001 1.0001 0 0 0 33.400391 30.199219 L 30.269531 32.546875 L 28.363281 31.332031 C 29.854148 28.992241 36.586988 18.430184 38.070312 16.101562 C 38.68824 15.13186 39.550116 14.680204 40.490234 14.462891 z M 47.570312 14.525391 L 60.548828 14.636719 L 67.658203 26.501953 A 2.0002 2.0002 0 0 0 69.273438 27.46875 L 64.783203 36.931641 L 53.910156 35.150391 L 55.925781 33.513672 A 2.0002 2.0002 0 0 0 56.494141 31.148438 C 56.494141 31.148438 55.075956 27.959202 53.308594 24.351562 C 51.541231 20.743924 49.590464 16.858425 47.826172 14.767578 C 47.741322 14.667021 47.655624 14.621426 47.570312 14.525391 z M 54.638672 20.017578 C 54.378297 20.064078 54.135656 20.209359 53.972656 20.443359 C 53.646656 20.910359 53.762469 21.554859 54.230469 21.880859 C 54.698469 22.206859 55.343922 22.091047 55.669922 21.623047 C 55.995922 21.155047 55.879156 20.510547 55.410156 20.185547 C 55.176656 20.022547 54.899047 19.971078 54.638672 20.017578 z M 62.638672 22.017578 C 62.378297 22.064078 62.135656 22.209359 61.972656 22.443359 C 61.646656 22.910359 61.762469 23.554859 62.230469 23.880859 C 62.698469 24.206859 63.343922 24.091047 63.669922 23.623047 C 63.995922 23.155047 63.879156 22.510547 63.410156 22.185547 C 63.176656 22.022547 62.899047 21.971078 62.638672 22.017578 z M 58.638672 27.017578 C 58.378297 27.064078 58.135656 27.209359 57.972656 27.443359 C 57.646656 27.910359 57.762469 28.554859 58.230469 28.880859 C 58.698469 29.206859 59.343922 29.091047 59.669922 28.623047 C 59.995922 28.155047 59.879156 27.510547 59.410156 27.185547 C 59.176656 27.022547 58.899047 26.971078 58.638672 27.017578 z M 77.259766 37.150391 A 2.0002 2.0002 0 0 0 76.367188 37.416016 L 62.853516 45.21875 A 2.0002 2.0002 0 0 0 62.121094 47.949219 L 70.935547 63.216797 C 68.187448 63.142187 66.539546 63.044879 65.580078 62.990234 L 64.480469 57.613281 A 2.0002 2.0002 0 0 0 62.458984 56.015625 A 2.0002 2.0002 0 0 0 60.919922 56.816406 L 50.75 70.410156 A 2.0002 2.0002 0 0 0 50.757812 72.814453 L 61.603516 87.144531 A 2.0002 2.0002 0 0 0 65.195312 85.816406 L 65.015625 82.839844 L 77.945312 82.0625 A 2.0002 2.0002 0 0 0 79.591797 81.003906 L 88.121094 64.962891 C 88.380616 64.596058 88.643266 64.205883 88.892578 63.771484 C 90.022656 61.802447 91.043637 58.799012 89.427734 56 C 87.891198 53.338142 79.097656 38.146484 79.097656 38.146484 A 2.0002 2.0002 0 0 0 77.259766 37.150391 z M 29.992188 40.560547 A 2.0002 2.0002 0 0 0 29.8125 40.574219 L 11.980469 42.802734 A 2.0002 2.0002 0 0 0 10.90625 46.287109 L 14.416016 49.386719 L 8.296875 59.34375 A 2.0002 2.0002 0 0 0 8.2304688 61.322266 C 11.654875 67.838475 15.046958 73.081625 18.417969 77.445312 A 2.0002 2.0002 0 0 0 18.560547 77.609375 C 18.683928 77.814566 18.784951 78.010434 18.923828 78.21875 C 20.209005 80.146515 22.374516 82.451172 25.603516 82.451172 L 45.664062 82.451172 A 2.0002 2.0002 0 0 0 47.664062 80.451172 L 47.664062 64.849609 A 2.0002 2.0002 0 0 0 45.664062 62.849609 L 28.037109 62.849609 C 29.476705 60.505721 30.385374 59.127302 30.912109 58.324219 L 36.115234 60.058594 A 2.0002 2.0002 0 0 0 38.585938 57.375 L 31.898438 41.771484 A 2.0002 2.0002 0 0 0 29.992188 40.560547 z M 76.636719 41.878906 C 78.039905 44.303163 84.58529 55.610094 85.964844 58 C 86.357852 58.680757 86.350476 59.470534 86.085938 60.316406 A 2.0002 2.0002 0 0 0 86.041016 60.376953 C 86.041016 60.376953 85.859464 60.676743 85.134766 61.238281 C 84.410067 61.79982 83.242959 62.491416 81.466797 62.890625 C 80.494885 63.109071 78.15328 63.217797 75.574219 63.248047 L 75.533203 63.179688 L 77.554688 61.832031 A 1.0001 1.0001 0 0 0 76.980469 59.992188 A 1.0001 1.0001 0 0 0 76.445312 60.167969 L 74.53125 61.443359 L 73.523438 59.697266 L 76.78125 55.625 A 1.0001 1.0001 0 0 0 75.96875 53.990234 A 1.0001 1.0001 0 0 0 75.21875 54.375 L 72.449219 57.837891 L 71.03125 55.382812 L 75.707031 50.707031 A 1.0001 1.0001 0 0 0 74.980469 48.990234 A 1.0001 1.0001 0 0 0 74.292969 49.292969 L 69.996094 53.589844 L 68.833984 51.576172 L 71.708984 48.691406 A 1.0001 1.0001 0 0 0 70.978516 46.974609 A 1.0001 1.0001 0 0 0 70.291016 47.279297 L 67.798828 49.78125 L 66.585938 47.681641 L 76.636719 41.878906 z M 28.816406 44.730469 L 33.15625 54.855469 L 30.693359 54.035156 A 2.0002 2.0002 0 0 0 28.394531 54.828125 C 28.394531 54.828125 26.46594 57.736917 24.373047 61.166016 C 22.280154 64.595114 20.051279 68.327759 19.236328 70.939453 C 19.155418 71.198748 19.170178 71.21561 19.099609 71.449219 C 16.866771 68.255375 14.613821 64.688815 12.326172 60.425781 L 18.703125 50.046875 A 2.0002 2.0002 0 0 0 18.324219 47.5 L 16.876953 46.222656 L 28.816406 44.730469 z M 22.222656 47.978516 C 21.962406 48.025016 21.719641 48.170297 21.556641 48.404297 C 21.230641 48.872297 21.346453 49.51775 21.814453 49.84375 C 22.282453 50.16975 22.927906 50.053938 23.253906 49.585938 C 23.579906 49.117938 23.463141 48.473438 22.994141 48.148438 C 22.760141 47.985437 22.482906 47.932016 22.222656 47.978516 z M 20.15625 56.695312 C 19.896 56.741813 19.653234 56.887094 19.490234 57.121094 C 19.164234 57.588094 19.280047 58.232594 19.748047 58.558594 C 20.216047 58.884594 20.8615 58.770734 21.1875 58.302734 C 21.5135 57.834734 21.397687 57.189281 20.929688 56.863281 C 20.695687 56.700281 20.4165 56.648812 20.15625 56.695312 z M 61.455078 62.779297 L 61.974609 65.322266 A 2.0002 2.0002 0 0 0 63.810547 66.917969 C 63.810547 66.917969 67.294354 67.132534 71.310547 67.230469 C 75.326739 67.328399 79.674481 67.392913 82.34375 66.792969 C 82.472556 66.764019 82.552752 66.709199 82.677734 66.677734 L 76.585938 78.136719 L 62.779297 78.964844 A 2.0002 2.0002 0 0 0 61.175781 79.951172 L 54.855469 71.601562 L 61.455078 62.779297 z M 25.689453 66.849609 L 43.664062 66.849609 L 43.664062 78.451172 L 40.09375 78.451172 L 42.019531 75.882812 A 1.0001 1.0001 0 0 0 41.257812 74.271484 A 1.0001 1.0001 0 0 0 40.419922 74.683594 L 37.59375 78.451172 L 34.644531 78.451172 L 35.867188 76.822266 A 1.0001 1.0001 0 0 0 35.103516 75.212891 A 1.0001 1.0001 0 0 0 34.267578 75.623047 L 32.146484 78.451172 L 29.257812 78.451172 L 31.833984 74.550781 A 1.0001 1.0001 0 0 0 30.976562 72.988281 A 1.0001 1.0001 0 0 0 30.166016 73.449219 L 26.857422 78.451172 L 25.603516 78.451172 C 25.122379 78.451172 24.649964 78.287842 24.195312 78.009766 L 27.832031 72.554688 A 1.0001 1.0001 0 0 0 26.980469 70.988281 A 1.0001 1.0001 0 0 0 26.167969 71.445312 L 22.722656 76.615234 C 22.563736 76.414379 22.400023 76.222105 22.251953 76 C 22.186208 75.901382 22.139505 75.807446 22.078125 75.708984 C 22.189569 75.145644 22.451739 74.063144 23.054688 72.130859 C 23.351353 71.180128 24.426414 69.097903 25.689453 66.849609 z M 62.638672 69.949219 C 62.378297 69.995719 62.135656 70.142953 61.972656 70.376953 C 61.646656 70.844953 61.762469 71.488453 62.230469 71.814453 C 62.698469 72.140453 63.343922 72.024641 63.669922 71.556641 C 63.995922 71.088641 63.879156 70.445141 63.410156 70.119141 C 63.176656 69.956141 62.899047 69.902719 62.638672 69.949219 z M 70.638672 71.949219 C 70.378297 71.995719 70.135656 72.142953 69.972656 72.376953 C 69.646656 72.844953 69.762469 73.488453 70.230469 73.814453 C 70.698469 74.140453 71.343922 74.024641 71.669922 73.556641 C 71.995922 73.088641 71.879156 72.445141 71.410156 72.119141 C 71.176656 71.956141 70.899047 71.902719 70.638672 71.949219 z"/></svg>